<svg xmlns="http://www.w3.org/2000/svg" width="120" height="98" viewBox="0 0 120 98">
  <g id="twitter" transform="translate(-660 -4463)">
    <rect id="長方形_393" data-name="長方形 393" width="120" height="98" transform="translate(660 4463)" fill="none"/>
    <path id="パス_2" data-name="パス 2" d="M63.333,66.889C93.556,66.889,110,42,110,20.222V18a36.127,36.127,0,0,0,8-8.444,36.9,36.9,0,0,1-9.333,2.667,17.292,17.292,0,0,0,7.111-8.889,40.766,40.766,0,0,1-10.222,4A15.873,15.873,0,0,0,93.556,2,16.7,16.7,0,0,0,77.111,18.444,8.664,8.664,0,0,0,77.556,22c-13.778-.889-25.778-7.111-33.778-17.333a17.02,17.02,0,0,0-2.222,8.444,17.658,17.658,0,0,0,7.111,13.778,14.983,14.983,0,0,1-7.556-2.222h0a16.243,16.243,0,0,0,13.333,16A13.7,13.7,0,0,1,50,41.111a7.564,7.564,0,0,1-3.111-.444c2.222,6.667,8,11.111,15.556,11.556A33.556,33.556,0,0,1,42,59.333a12.3,12.3,0,0,1-4-.444,41.95,41.95,0,0,0,25.333,8" transform="translate(642 4477.411)" fill="#08f" fill-rule="evenodd"/>
  </g>
</svg>
